# Blender v2.93.2 OBJ File: ''
# www.blender.org
mtllib tree00.mtl
o Cylinder
v 0.019167 5.122641 0.022686
v 0.199847 4.361975 -0.186952
v 0.015674 4.361974 -0.253986
v 0.033842 5.122641 0.034999
v 0.292234 4.298648 -0.023413
v 0.263809 4.361974 0.175798
v 0.032072 5.122641 0.045037
v 0.113670 4.361974 0.301780
v 0.014070 5.122641 0.051589
v -0.087932 4.298648 0.295584
v -0.232462 4.361974 0.175798
v 0.004492 5.122641 0.034999
v -0.266496 4.361974 -0.017217
v 0.024263 5.122641 0.051589
v 0.009589 5.122641 0.026172
v -0.174109 4.298648 -0.193148
v -0.353069 1.022838 0.994068
v -0.005440 1.086164 -0.939428
v 0.979368 0.892087 -0.113076
v -1.162461 0.840754 -0.150182
v -0.569643 1.378894 -0.618026
v -0.766733 0.777428 -0.851516
v -0.006855 0.840754 -1.119851
v -1.023078 0.840754 0.640299
v -0.862932 1.442220 -0.094124
v -0.306797 1.378894 0.872648
v -0.413802 0.777428 1.150053
v 0.394483 0.840754 1.156250
v 1.009368 0.840754 0.640300
v 0.296607 1.442220 0.878845
v 0.858351 1.442220 -0.094124
v 1.143143 0.777428 -0.156378
v 0.747414 0.840754 -0.845319
v -0.002290 1.442220 -0.816288
v -0.470645 3.588469 -0.047718
v -0.106769 4.348738 -0.103204
v -0.309076 3.525142 -0.343475
v 0.010725 3.588469 -0.451635
v -0.412585 3.588469 0.281558
v -0.162981 4.412065 0.010068
v -0.052405 4.348738 0.205109
v -0.162062 3.525143 0.490282
v 0.177903 3.588469 0.496478
v 0.434034 3.588469 0.281558
v 0.076845 4.412065 0.211305
v 0.193029 4.412065 0.010068
v 0.486486 3.525142 -0.053915
v 0.324917 3.588469 -0.337279
v 0.015024 4.412065 -0.139296
v 0.010529 3.641016 -0.315061
v 0.463775 2.738306 -0.504165
v 0.005286 2.738306 -0.671042
v 0.365764 3.641016 -0.016983
v 0.702124 2.674979 -0.087815
v 0.623007 2.738306 0.398883
v 0.133901 3.641016 0.384616
v 0.249243 2.738306 0.712509
v -0.118452 3.577690 0.378420
v -0.244281 2.674980 0.706312
v -0.612436 2.738306 0.398883
v -0.344706 3.641016 -0.016983
v -0.697161 2.738306 -0.081619
v -0.226943 3.577689 -0.236866
v -0.458813 2.674980 -0.510362
v -0.864248 1.974451 -0.105654
v -0.359524 2.727041 -0.384325
v -0.569569 1.911125 -0.631965
v 0.000399 1.974451 -0.831178
v -0.759959 1.974452 0.485799
v -0.545192 2.790368 -0.046827
v -0.191317 2.727041 0.569622
v -0.305499 1.911125 0.865646
v 0.300687 1.974452 0.871843
v 0.760756 1.974451 0.485799
v 0.196847 2.790368 0.575818
v 0.556331 2.790368 -0.046827
v 0.859436 1.911125 -0.111850
v 0.564756 1.974452 -0.625769
v 0.005569 2.790368 -0.508971
v 0.001149 2.032125 -0.681816
v 0.669916 1.382667 -0.752068
v -0.003388 1.382666 -0.997131
v 0.726197 2.032125 -0.073428
v 1.022565 1.319340 -0.137744
v 0.903752 1.382667 0.574081
v 0.252955 2.032126 0.746250
v 0.354870 1.382667 1.034648
v -0.256267 1.968799 0.740054
v -0.367254 1.319340 1.028452
v -0.910528 1.382667 0.574081
v -0.723899 2.032125 -0.073428
v -1.034949 1.382666 -0.131548
v -0.477702 1.968799 -0.515766
v -0.682301 1.319340 -0.758265
v -0.141511 4.412065 0.131830
v 0.171559 4.412065 0.131830
v 0.131209 4.412065 -0.097008
v 0.242392 3.641016 -0.230669
v 0.322917 3.641016 0.226012
v -0.301860 3.641016 0.226012
v -0.478762 2.790368 0.329916
v 0.489901 2.790368 0.329917
v 0.365054 2.790368 -0.378129
v 0.474390 2.032126 -0.509570
v 0.638746 2.032126 0.422534
v -0.636448 2.032126 0.422534
v -0.759126 1.442220 0.494589
v 0.754545 1.442220 0.494589
v 0.559453 1.442220 -0.611830
v 0.637348 1.086164 -0.705472
v 0.860586 0.892087 0.560572
v 0.336580 1.086164 1.000265
v -0.871465 0.892087 0.560572
v -0.990247 0.892087 -0.113076
v -0.653837 0.828760 -0.711668
v 0.028745 5.122641 0.026172
v 0.006262 5.122641 0.045037
v -0.018886 1.175446 -0.373037
v 0.161257 0.581217 -0.198870
v -0.018886 0.581217 -0.264436
v 0.231064 1.175446 -0.282063
v 0.257109 0.581217 -0.032850
v 0.364060 1.175446 -0.051708
v 0.223820 0.581217 0.155942
v 0.114110 1.175446 0.381218
v 0.076966 0.581217 0.279167
v -0.151881 1.175446 0.381218
v -0.114738 0.581217 0.279166
v -0.355642 1.175446 0.210242
v -0.261591 0.581217 0.155942
v -0.294880 0.581217 -0.032850
v 0.317871 1.175446 0.210242
v -0.199028 0.581217 -0.198870
v -0.268836 1.175446 -0.282063
v 0.231064 0.000000 -0.282063
v 0.317871 -0.000000 0.210242
v -0.151881 -0.000000 0.381218
v -0.268836 0.000000 -0.282063
v -0.401831 0.000000 -0.051708
v -0.018886 0.000000 -0.373037
v -0.355642 -0.000000 0.210242
v 0.114110 -0.000000 0.381218
v 0.364060 0.000000 -0.051708
v -0.401831 1.175446 -0.051708
vn 0.3238 0.3221 -0.8896
vn 0.8731 0.3022 -0.3827
vn 0.8730 0.3022 -0.3827
vn 0.9537 0.2971 0.0477
vn 0.9536 0.2971 0.0477
vn 0.6108 0.3112 0.7280
vn 0.6109 0.3112 0.7280
vn -0.1164 0.2965 0.9479
vn -0.5313 0.3015 0.7917
vn -0.5312 0.3015 0.7918
vn -0.9327 0.3210 0.1645
vn 0.0000 1.0000 0.0000
vn -0.3809 0.3169 -0.8686
vn -0.3810 0.3169 -0.8686
vn -0.7898 0.3166 -0.5253
vn 0.0415 -0.9991 0.0024
vn -0.7667 0.4307 -0.4761
vn -0.7667 0.4310 -0.4758
vn -0.7667 0.4310 -0.4757
vn -0.3357 0.4303 -0.8379
vn -0.3357 0.4304 -0.8379
vn -0.3356 0.4304 -0.8379
vn -0.8898 0.4285 0.1569
vn -0.5510 0.4228 0.7195
vn -0.5511 0.4229 0.7194
vn -0.5511 0.4230 0.7193
vn -0.0456 0.4186 0.9070
vn -0.0455 0.4187 0.9070
vn 0.5844 0.4163 0.6965
vn 0.9079 0.3959 0.1376
vn 0.9079 0.3960 0.1376
vn 0.8023 0.4025 -0.4408
vn 0.8023 0.4025 -0.4407
vn 0.3093 0.4266 -0.8499
vn -0.7837 0.3370 -0.5217
vn -0.7838 0.3370 -0.5217
vn -0.3782 0.3367 -0.8623
vn -0.3783 0.3367 -0.8623
vn -0.9279 0.3351 0.1636
vn -0.5277 0.3288 0.7832
vn -0.1127 0.3256 0.9388
vn 0.6078 0.3254 0.7244
vn 0.9437 0.3122 0.1093
vn 0.8444 0.3173 -0.4317
vn 0.3224 0.3342 -0.8857
vn 0.3209 0.3458 -0.8817
vn 0.8325 0.3304 -0.4448
vn 0.8325 0.3304 -0.4447
vn 0.9366 0.3260 0.1283
vn 0.9366 0.3260 0.1282
vn 0.6047 0.3390 0.7207
vn -0.0735 0.3409 0.9372
vn -0.0734 0.3409 0.9372
vn -0.5534 0.3441 0.7585
vn -0.9230 0.3487 0.1627
vn -0.3579 0.3490 -0.8661
vn -0.7906 0.3500 -0.5024
vn -0.7957 0.3508 -0.4938
vn -0.7957 0.3507 -0.4939
vn -0.3485 0.3497 -0.8696
vn -0.3486 0.3496 -0.8696
vn -0.9228 0.3491 0.1627
vn -0.5664 0.3446 0.7487
vn -0.5664 0.3445 0.7487
vn -0.0551 0.3408 0.9385
vn 0.6048 0.3385 0.7208
vn 0.9359 0.3243 0.1375
vn 0.8290 0.3293 -0.4520
vn 0.3209 0.3461 -0.8816
vn 0.3114 0.4133 -0.8557
vn 0.8077 0.3910 -0.4412
vn 0.8078 0.3910 -0.4412
vn 0.9129 0.3849 0.1357
vn 0.9130 0.3848 0.1356
vn 0.5881 0.4035 0.7009
vn -0.0506 0.4058 0.9125
vn -0.0509 0.4056 0.9126
vn -0.5513 0.4096 0.7268
vn -0.5513 0.4095 0.7269
vn -0.8960 0.4150 0.1580
vn -0.3405 0.4166 -0.8429
vn -0.3402 0.4169 -0.8429
vn -0.3404 0.4168 -0.8429
vn -0.7709 0.4176 -0.4810
vn -0.7708 0.4174 -0.4813
vn -0.7708 0.4174 -0.4812
vn 0.1824 -0.8628 0.4716
vn 0.1824 -0.8628 0.4715
vn 0.1823 -0.8628 0.4715
vn 0.4347 -0.8567 0.2778
vn 0.4346 -0.8567 0.2778
vn 0.4511 -0.8889 -0.0795
vn 0.0338 -0.8164 -0.5765
vn 0.3326 -0.8240 -0.4586
vn -0.3049 -0.8804 -0.3633
vn -0.6502 -0.7582 0.0485
vn -0.6189 -0.7661 0.1734
vn -0.1439 -0.9072 0.3954
vn -0.1295 -0.9255 0.3559
vn -0.5359 -0.8196 0.2028
vn -0.5873 -0.8093 -0.0082
vn -0.5873 -0.8093 -0.0081
vn -0.2691 -0.9081 -0.3207
vn 0.1984 -0.8870 -0.4170
vn 0.1156 -0.8858 -0.4495
vn 0.3987 -0.9144 -0.0703
vn 0.3033 -0.9077 0.2901
vn 0.2297 -0.9090 0.3477
vn 0.2296 -0.9090 0.3477
vn 0.2296 -0.9091 0.3477
vn 0.2137 -0.9379 0.2733
vn 0.2138 -0.9379 0.2733
vn 0.2322 -0.9377 0.2586
vn 0.3356 -0.9401 -0.0592
vn 0.1208 -0.9255 -0.3590
vn 0.1379 -0.9257 -0.3523
vn -0.2263 -0.9360 -0.2697
vn -0.5129 -0.8582 -0.0235
vn -0.5129 -0.8581 -0.0235
vn -0.5128 -0.8582 -0.0235
vn -0.4618 -0.8659 0.1921
vn -0.4618 -0.8659 0.1920
vn -0.4618 -0.8660 0.1920
vn -0.1107 -0.9462 0.3041
vn -0.1302 -0.9247 0.3577
vn -0.5031 -0.8320 0.2339
vn -0.5695 -0.8205 -0.0494
vn -0.2660 -0.9104 -0.3170
vn 0.1072 -0.9038 -0.4144
vn 0.1839 -0.9047 -0.3844
vn 0.3927 -0.9170 -0.0692
vn 0.2232 -0.9201 0.3218
vn 0.2799 -0.9193 0.2765
vn 0.2434 -0.9398 0.2401
vn 0.2434 -0.9397 0.2401
vn 0.1938 -0.9402 0.2801
vn 0.3381 -0.9392 -0.0596
vn 0.1572 -0.9309 -0.3297
vn 0.0922 -0.9303 -0.3550
vn 0.0922 -0.9303 -0.3549
vn -0.2282 -0.9348 -0.2720
vn -0.4989 -0.8656 -0.0432
vn -0.4989 -0.8656 -0.0433
vn -0.4422 -0.8730 0.2057
vn -0.1133 -0.9435 0.3114
vn -0.2817 -0.5673 0.7738
vn -0.6966 -0.6658 0.2673
vn -0.4648 -0.8844 -0.0418
vn -0.4648 -0.8844 -0.0417
vn -0.5117 -0.7239 -0.4627
vn -0.5116 -0.7239 -0.4627
vn 0.0523 -0.5359 -0.8427
vn 0.4634 -0.7303 -0.5019
vn 0.4635 -0.7303 -0.5019
vn 0.2956 -0.9539 -0.0521
vn 0.3663 -0.7441 0.5587
vn 0.2118 -0.9540 0.2122
vn 0.0000 1.0000 -0.0001
vn 0.0415 -0.9991 0.0025
vn -0.7667 0.4311 -0.4757
vn -0.0551 0.3409 0.9385
vn 0.1988 -0.8870 -0.4168
vn 0.2322 -0.9376 0.2586
vn -0.6968 -0.6658 0.2668
vn 0.3371 -0.1693 -0.9261
vn 0.8535 -0.1693 -0.4928
vn 0.9706 -0.1693 0.1711
vn 0.6335 -0.1693 0.7550
vn -0.0000 -0.1693 0.9856
vn -0.6335 -0.1693 0.7550
vn -0.9706 -0.1693 0.1711
vn -0.3371 -0.1693 -0.9261
vn -0.8535 -0.1693 -0.4928
vn -0.0000 -1.0000 -0.0000
vn -0.8530 0.1729 -0.4925
vn -0.3369 0.1729 -0.9255
vn -0.9700 0.1729 0.1710
vn -0.6331 0.1729 0.7545
vn -0.0000 0.1729 0.9849
vn 0.6331 0.1729 0.7545
vn 0.9700 0.1729 0.1710
vn 0.8530 0.1729 -0.4925
vn 0.3369 0.1729 -0.9255
usemtl Leaves
s 1
f 1//1 2//1 3//1
f 2//2 4//3 5//3
f 4//4 6//5 5//4
f 7//6 8//7 6//7
f 8//8 9//8 10//8
f 9//9 11//10 10//9
f 11//11 12//11 13//11
f 14//12 7//12 1//12
f 15//13 3//13 16//14
f 13//15 15//15 16//15
f 17//16 18//16 19//16
f 20//17 21//18 22//19
f 21//20 23//21 22//22
f 24//23 25//23 20//23
f 26//24 24//25 27//26
f 28//27 26//27 27//28
f 29//29 30//29 28//29
f 31//30 29//31 32//31
f 33//32 31//32 32//33
f 34//34 33//34 23//34
f 35//35 36//36 37//35
f 36//37 38//37 37//38
f 39//39 40//39 35//39
f 41//40 39//40 42//40
f 43//41 41//41 42//41
f 44//42 45//42 43//42
f 46//43 44//43 47//43
f 48//44 46//44 47//44
f 49//45 48//45 38//45
f 50//46 51//46 52//46
f 51//47 53//47 54//48
f 53//49 55//50 54//49
f 55//51 56//51 57//51
f 57//52 58//52 59//53
f 58//54 60//54 59//54
f 60//55 61//55 62//55
f 63//56 52//56 64//56
f 62//57 63//57 64//57
f 65//58 66//58 67//59
f 66//60 68//61 67//61
f 69//62 70//62 65//62
f 71//63 69//64 72//63
f 73//65 71//65 72//65
f 74//66 75//66 73//66
f 76//67 74//67 77//67
f 78//68 76//68 77//68
f 79//69 78//69 68//69
f 80//70 81//70 82//70
f 81//71 83//72 84//71
f 83//73 85//74 84//73
f 85//75 86//75 87//75
f 87//76 88//77 89//77
f 88//78 90//79 89//78
f 90//80 91//80 92//80
f 93//81 82//82 94//83
f 92//84 93//85 94//86
f 13//87 36//88 40//89
f 36//90 3//90 49//91
f 11//92 40//92 95//92
f 41//93 11//93 95//93
f 8//94 41//94 45//94
f 96//95 8//95 45//95
f 46//96 6//96 96//96
f 97//97 5//97 46//97
f 49//98 2//98 97//98
f 50//99 48//99 98//99
f 98//100 47//100 53//100
f 53//101 44//102 99//101
f 99//103 43//103 56//103
f 43//104 58//104 56//104
f 58//105 39//105 100//105
f 39//106 61//106 100//106
f 63//107 38//107 50//107
f 35//108 63//109 61//110
f 62//111 66//112 70//111
f 66//113 52//113 79//113
f 60//114 70//114 101//114
f 71//115 60//115 101//115
f 57//116 71//116 75//116
f 102//117 57//117 75//117
f 76//118 55//119 102//120
f 103//121 54//122 76//123
f 79//124 51//124 103//124
f 80//125 78//125 104//125
f 104//126 77//126 83//126
f 83//127 74//127 105//127
f 105//128 73//128 86//128
f 73//129 88//129 86//129
f 88//130 69//130 106//130
f 69//131 91//131 106//131
f 93//132 68//132 80//132
f 65//133 93//133 91//133
f 92//134 21//135 25//134
f 21//136 82//136 34//136
f 90//137 25//137 107//137
f 26//138 90//138 107//138
f 87//139 26//140 30//139
f 108//141 87//141 30//141
f 31//142 85//143 108//142
f 109//144 84//144 31//144
f 34//145 81//145 109//145
f 18//146 33//146 110//146
f 33//147 19//147 110//147
f 19//148 29//149 111//148
f 111//150 28//150 112//151
f 28//152 17//152 112//152
f 27//153 113//154 17//154
f 24//155 114//155 113//155
f 115//156 23//156 18//156
f 20//157 115//157 114//157
f 1//1 116//1 2//1
f 2//2 116//2 4//3
f 4//4 7//5 6//5
f 7//6 14//6 8//7
f 8//8 14//8 9//8
f 9//9 117//9 11//10
f 11//11 117//11 12//11
f 4//12 116//12 7//12
f 116//12 1//12 7//12
f 1//12 15//12 9//12
f 15//12 12//12 9//12
f 12//12 117//158 9//12
f 9//12 14//12 1//12
f 15//13 1//13 3//13
f 13//15 12//15 15//15
f 115//159 18//16 114//16
f 18//16 110//16 19//16
f 114//16 18//16 17//16
f 19//16 111//16 17//16
f 111//16 112//159 17//16
f 17//16 113//16 114//16
f 20//17 25//160 21//18
f 21//20 34//21 23//21
f 24//23 107//23 25//23
f 26//24 107//26 24//25
f 28//27 30//28 26//27
f 29//29 108//29 30//29
f 31//30 108//31 29//31
f 33//32 109//32 31//32
f 34//34 109//34 33//34
f 35//35 40//35 36//36
f 36//37 49//37 38//37
f 39//39 95//39 40//39
f 41//40 95//40 39//40
f 43//41 45//41 41//41
f 44//42 96//42 45//42
f 46//43 96//43 44//43
f 48//44 97//44 46//44
f 49//45 97//45 48//45
f 50//46 98//46 51//46
f 51//47 98//48 53//47
f 53//49 99//49 55//50
f 55//51 99//51 56//51
f 57//52 56//53 58//52
f 58//54 100//54 60//54
f 60//55 100//55 61//55
f 63//56 50//56 52//56
f 62//57 61//57 63//57
f 65//58 70//59 66//58
f 66//60 79//61 68//61
f 69//62 101//62 70//62
f 71//63 101//64 69//64
f 73//65 75//161 71//65
f 74//66 102//66 75//66
f 76//67 102//67 74//67
f 78//68 103//68 76//68
f 79//69 103//69 78//69
f 80//70 104//70 81//70
f 81//71 104//71 83//72
f 83//73 105//73 85//74
f 85//75 105//75 86//75
f 87//76 86//77 88//77
f 88//78 106//78 90//79
f 90//80 106//80 91//80
f 93//81 80//83 82//82
f 92//84 91//85 93//85
f 13//87 16//87 36//88
f 36//90 16//91 3//90
f 11//92 13//92 40//92
f 41//93 10//93 11//93
f 8//94 10//94 41//94
f 96//95 6//95 8//95
f 46//96 5//96 6//96
f 97//97 2//97 5//97
f 49//98 3//98 2//98
f 50//99 38//99 48//99
f 98//100 48//100 47//100
f 53//101 47//102 44//102
f 99//103 44//103 43//103
f 43//104 42//162 58//104
f 58//105 42//105 39//105
f 39//106 35//106 61//106
f 63//107 37//107 38//107
f 35//108 37//110 63//109
f 62//111 64//111 66//112
f 66//113 64//163 52//113
f 60//114 62//114 70//114
f 71//115 59//115 60//115
f 57//116 59//116 71//116
f 102//117 55//117 57//117
f 76//118 54//120 55//119
f 103//121 51//122 54//122
f 79//124 52//124 51//124
f 80//125 68//125 78//125
f 104//126 78//126 77//126
f 83//127 77//127 74//127
f 105//128 74//128 73//128
f 73//129 72//129 88//129
f 88//130 72//130 69//130
f 69//131 65//131 91//131
f 93//132 67//132 68//132
f 65//133 67//133 93//133
f 92//134 94//135 21//135
f 21//136 94//136 82//136
f 90//137 92//137 25//137
f 26//138 89//138 90//138
f 87//139 89//139 26//140
f 108//141 85//141 87//141
f 31//142 84//142 85//143
f 109//144 81//144 84//144
f 34//145 82//145 81//145
f 18//146 23//146 33//146
f 33//147 32//164 19//147
f 19//148 32//148 29//149
f 111//150 29//151 28//150
f 28//152 27//152 17//152
f 27//153 24//153 113//154
f 24//155 20//155 114//155
f 115//156 22//156 23//156
f 20//157 22//157 115//157
usemtl Bark
f 118//165 119//165 120//165
f 121//166 122//166 119//166
f 123//167 124//167 122//167
f 124//168 125//168 126//168
f 126//169 127//169 128//169
f 128//170 129//170 130//170
f 129//171 131//171 130//171
f 118//12 127//12 132//12
f 133//172 118//172 120//172
f 131//173 134//173 133//173
f 135//174 136//174 137//174
f 131//175 138//175 139//175
f 133//176 140//176 138//176
f 130//177 139//177 141//177
f 128//178 141//178 137//178
f 126//179 137//179 142//179
f 124//180 142//180 136//180
f 122//181 136//181 143//181
f 135//182 122//182 143//182
f 120//183 135//183 140//183
f 118//165 121//165 119//165
f 121//166 123//166 122//166
f 123//167 132//167 124//167
f 124//168 132//168 125//168
f 126//169 125//169 127//169
f 128//170 127//170 129//170
f 129//171 144//171 131//171
f 123//12 121//12 132//12
f 121//12 118//12 132//12
f 118//12 134//12 144//12
f 144//12 129//12 118//12
f 129//12 127//12 118//12
f 127//12 125//12 132//12
f 133//172 134//172 118//172
f 131//173 144//173 134//173
f 138//174 140//174 139//174
f 140//174 135//174 139//174
f 135//174 143//174 136//174
f 136//174 142//174 137//174
f 137//174 141//174 135//174
f 141//174 139//174 135//174
f 131//175 133//175 138//175
f 133//176 120//176 140//176
f 130//177 131//177 139//177
f 128//178 130//178 141//178
f 126//179 128//179 137//179
f 124//180 126//180 142//180
f 122//181 124//181 136//181
f 135//182 119//182 122//182
f 120//183 119//183 135//183
